# xmcd
#
# Track frame offsets: 
#        182
#        11925
#        23350
#        35420
#        48692
#        60622
#        73427
#        83282
#        95320
#        108975
#        120887
#        132775
#        141337
#        152762
#        166145
#        178332
#        191080
#        203792
#        215172
#        228460
#
# Disc length: 3192 seconds
#
# Revision: 6
# Processed by: cddbd v1.5.2PL0 Copyright (c) Steve Scherf et al.
# Submitted via: ExactAudioCopyFreeDBPlugin 1.0
#
DISCID=170c7614
DTITLE=The Drifters - Greatest Hits and More, 1953-1965
DYEAR=1988
DGENRE=Rhythm and Blues
TTITLE0=She Never Talked to Me That Way
TTITLE1=When My Little Girl is Smiling
TTITLE2=Stranger on the Shore
TTITLE3=What to Do
TTITLE4=Up on the Roof
TTITLE5=Another Night with the Boys
TTITLE6=I Feel Good All Over
TTITLE7=Let the Music Play
TTITLE8=On Broadway
TTITLE9=I'll Take You Home
TTITLE10=If You Don't Come Back
TTITLE11=Didn't It
TTITLE12=One Way Love
TTITLE13=He's Just a Playboy
TTITLE14=Under the Boardwalk
TTITLE15=I Don't Want to Go on Without You
TTITLE16=I've Got Sand in My Shoes
TTITLE17=Saturday Night at the Movies
TTITLE18=At the Club
TTITLE19=Come on Over to My Place
EXTD=YEAR: 1988
EXTT0=
EXTT1=
EXTT2=
EXTT3=
EXTT4=
EXTT5=
EXTT6=
EXTT7=
EXTT8=
EXTT9=
EXTT10=
EXTT11=
EXTT12=
EXTT13=
EXTT14=
EXTT15=
EXTT16=
EXTT17=
EXTT18=
EXTT19=
PLAYORDER=
